<?xml version="1.0" standalone="no"?>
<!DOCTYPE svg PUBLIC "-//W3C//DTD SVG 20010904//EN"
 "http://www.w3.org/TR/2001/REC-SVG-20010904/DTD/svg10.dtd">
<svg version="1.0" xmlns="http://www.w3.org/2000/svg"
 width="96.000000pt" height="96.000000pt" viewBox="0 0 96.000000 96.000000"
 preserveAspectRatio="xMidYMid meet">
<metadata>
Created by potrace 1.11, written by Peter Selinger 2001-2013
</metadata>
<g transform="translate(0.000000,96.000000) scale(0.100000,-0.100000)"
fill="#000000" stroke="none">
<path d="M46 588 c0 -134 -2 -249 -4 -255 -2 -7 -10 -13 -18 -13 -8 0 -14 -7
-14 -15 0 -20 44 -20 60 0 10 12 13 70 12 225 0 116 3 210 6 210 4 -1 42 -48
85 -106 44 -59 82 -102 86 -98 4 5 40 53 80 107 40 53 76 97 80 97 3 0 5 -94
3 -208 -3 -233 -1 -242 60 -244 68 -2 68 -3 68 263 0 192 3 239 13 239 11 0
13 -27 13 -120 -1 -67 2 -128 5 -137 7 -22 19 -9 114 135 44 67 86 122 93 122
6 0 12 -2 12 -5 0 -3 -35 -58 -79 -123 -43 -64 -81 -127 -85 -138 -12 -38 11
-70 106 -145 51 -40 95 -77 98 -81 7 -9 90 -17 108 -10 6 2 12 10 12 18 0 8
-6 14 -12 15 -7 0 -26 2 -43 2 -20 1 -57 23 -114 67 -46 36 -92 71 -102 79
-11 7 -19 21 -19 30 0 9 38 74 84 145 58 89 82 133 79 147 -7 24 -45 44 -66
36 -8 -3 -43 -48 -78 -101 -35 -53 -67 -96 -71 -96 -3 0 -5 35 -3 78 3 87 -11
122 -49 122 -48 0 -51 -16 -52 -264 -1 -127 -2 -234 -3 -238 -1 -5 -11 -6 -23
-4 l-23 3 -3 251 c-2 206 -5 252 -16 252 -8 0 -54 -54 -104 -120 l-90 -120
-88 119 c-49 66 -96 120 -104 121 -13 0 -15 -33 -14 -242z"/>
<path d="M420 205 c-1 -5 -3 -21 -4 -35 -1 -31 -31 -34 -31 -3 0 11 -4 25 -8
30 -5 4 -7 -8 -5 -27 2 -27 8 -36 26 -38 26 -4 35 14 29 55 -2 15 -5 24 -7 18z"/>
<path d="M507 196 c-9 -10 -18 -11 -24 -5 -6 6 -8 -1 -5 -21 3 -23 1 -30 -13
-30 -14 0 -16 7 -13 30 3 17 1 30 -4 30 -4 0 -8 -16 -8 -35 0 -29 4 -35 21
-35 12 0 23 8 26 20 3 11 10 20 15 20 5 0 7 -10 3 -22 -6 -22 -6 -22 9 -4 11
13 12 23 6 31 -12 15 -3 25 16 18 10 -4 11 -10 4 -23 -7 -13 -6 -21 4 -29 11
-9 13 -6 12 20 -2 37 -28 56 -49 35z"/>
<path d="M6 191 c-4 -6 -1 -11 6 -11 8 0 9 -3 3 -8 -12 -8 -13 -27 -4 -37 4
-3 10 6 13 21 7 28 -7 54 -18 35z"/>
<path d="M55 168 c9 -42 11 -44 31 -28 13 11 19 11 36 1 17 -10 22 -9 33 6 13
17 14 17 20 1 11 -28 20 -21 20 15 0 28 -4 32 -27 35 -25 3 -28 0 -29 -30 l-1
-33 -11 26 c-17 37 -27 38 -42 4 l-13 -30 -1 33 c-1 17 -6 32 -12 32 -7 0 -8
-12 -4 -32z m130 12 c-3 -5 -13 -10 -21 -10 -8 0 -14 5 -14 10 0 6 9 10 21 10
11 0 17 -4 14 -10z"/>
<path d="M213 165 c0 -22 2 -30 4 -17 2 12 2 30 0 40 -3 9 -5 -1 -4 -23z"/>
<path d="M240 170 c-7 -17 -10 -33 -6 -37 3 -3 6 -1 6 5 0 7 7 12 15 12 8 0
15 -4 15 -10 0 -5 4 -10 9 -10 5 0 4 15 -2 35 -13 43 -21 44 -37 5z m25 0 c3
-5 1 -10 -4 -10 -6 0 -11 5 -11 10 0 6 2 10 4 10 3 0 8 -4 11 -10z"/>
<path d="M310 165 c1 -33 2 -37 11 -22 10 18 11 18 25 0 7 -10 14 -13 14 -7 0
5 -5 15 -12 22 -8 8 -8 15 2 27 7 9 8 15 2 15 -6 0 -13 -6 -15 -12 -4 -10 -8
-9 -16 2 -8 12 -11 6 -11 -25z"/>
<path d="M570 165 c0 -26 4 -35 16 -35 13 0 14 3 4 15 -7 8 -10 24 -7 35 3 11
1 20 -4 20 -5 0 -9 -16 -9 -35z"/>
<path d="M606 184 c-10 -25 -7 -31 17 -39 42 -14 77 -16 77 -6 0 6 5 11 11 11
5 0 7 -4 4 -10 -3 -5 -1 -10 4 -10 6 0 11 16 11 35 0 19 -5 35 -11 35 -6 0 -9
-7 -6 -15 10 -24 -11 -27 -32 -6 -11 11 -23 16 -26 11 -3 -5 3 -15 15 -22 27
-17 25 -26 -4 -24 -18 1 -26 8 -30 29 -6 30 -21 36 -30 11z m19 -14 c3 -5 1
-10 -4 -10 -6 0 -11 5 -11 10 0 6 2 10 4 10 3 0 8 -4 11 -10z"/>
<path d="M685 190 c3 -5 8 -10 11 -10 2 0 4 5 4 10 0 6 -5 10 -11 10 -5 0 -7
-4 -4 -10z"/>
<path d="M761 187 c-1 -10 -5 -16 -10 -13 -5 4 -4 -5 2 -19 10 -20 13 -21 18
-7 5 15 7 14 16 -2 16 -28 47 -16 51 19 l4 30 17 -33 17 -33 17 36 c9 19 13
35 8 35 -5 0 -12 -10 -15 -22 -7 -23 -7 -23 -17 -2 -14 27 -74 32 -84 6 -6
-15 -8 -15 -15 3 -8 18 -9 18 -9 2z m69 -22 c0 -25 -23 -35 -35 -15 -10 16 2
40 20 40 9 0 15 -9 15 -25z"/>
<path d="M912 175 c-15 -31 -16 -56 -2 -35 8 12 13 13 29 3 18 -11 18 -10 8
23 -12 41 -20 43 -35 9z"/>
<path d="M37 164 c-4 -4 -7 -14 -7 -23 0 -11 3 -12 11 -4 6 6 10 16 7 23 -2 6
-7 8 -11 4z"/>
</g>
</svg>
